# xmcd
#
# Track frame offsets:
#	150
#	13940
#	34345
#	37355
#	54082
#	72087
#	96132
#	120577
#	154140
#	177722
#	201990
#	222085
#	237965
#	265425
#	265800
#	266175
#	266550
#	281042
#	303090
#
# Disc length: 4281 seconds
#
# Revision: 9
# Processed by: cddbd v1.5.2PL0 Copyright (c) Steve Scherf et al.
# Submitted via: EasyCDDAExtractor 15.2.1.1
#
DISCID=2510b713
DTITLE=Me'Shell Ndegéocello - Cookie: The Anthropological Mixtape
DYEAR=2002
DGENRE=R&B
TTITLE0=Dead Nigga Blvd., Pt. 1
TTITLE1=Hot Night
TTITLE2=Interlude: Blah Blah Blah, Dyba Dyba Dyba
TTITLE3=Priorities 1-6
TTITLE4=Pocketbook
TTITLE5=Barry Farms
TTITLE6=Trust
TTITLE7=Akel Dama (Field of Blood)
TTITLE8=Earth
TTITLE9=Better By the Pound
TTITLE10=Criterion
TTITLE11=GOD.FEAR.MONEY
TTITLE12=Jabril
TTITLE13=Blank
TTITLE14=Blank
TTITLE15=Blank
TTITLE16=Dead Nigga Blvd (Pt. 2)
TTITLE17=Interlude: 6 Legged Griot Trio (Weariness)
TTITLE18=Pocketbook (Rockwilder and Missy Elliott Remix) 
EXTD=
EXTT0=
EXTT1=
EXTT2=
EXTT3=
EXTT4=
EXTT5=
EXTT6=
EXTT7=
EXTT8=
EXTT9=
EXTT10=
EXTT11=
EXTT12=
EXTT13=
EXTT14=
EXTT15=
EXTT16=
EXTT17=
EXTT18=
PLAYORDER=
